<svg id="Capa_1" data-name="Capa 1" xmlns="http://www.w3.org/2000/svg" viewBox="0 0 595.28 841.89"><defs><style>.cls-1{fill:#1d1d1b;}</style></defs><title>iso version</title><path class="cls-1" d="M547.34,265.59l-140.2-39.53a181.12,181.12,0,0,0-221-31.63L82.37,165.16,112,274.65a181,181,0,0,0-10.47,28c-25.79,91.46,23.62,186.6,111.1,219.3L236,617.19l97.27-92.87A181.36,181.36,0,0,0,457.92,353.09ZM319.91,197.43a159.62,159.62,0,0,1,67.61,38.77l-13.31,11.25L216.67,203A159.62,159.62,0,0,1,319.91,197.43ZM255.75,317.68l75.81,21.38-55.31,60.67Zm-133.89-9.32c.17-.59.37-1.16.55-1.75L162.8,318l43.61,178.36C137.71,463.13,100.45,384.31,121.86,308.36Zm309,87.13A160.31,160.31,0,0,1,335.66,501l-4.72-23.64L435.09,375.42A160.9,160.9,0,0,1,430.84,395.49Z"/></svg>